name analog
datacolumns 19
datarows 61
range 0.4185 0.4485
endheader
time	ground_force_vx	ground_force_vy	ground_force_vz	ground_force_px	ground_force_py	ground_force_pz	l_ground_force_vx	l_ground_force_vy	l_ground_force_vz	l_ground_force_px	l_ground_force_py	l_ground_force_pz	ground_torque_x	ground_torque_y	ground_torque_z	l_ground_torque_x	l_ground_torque_y	l_ground_torque_z
0.4185	-0.0	-0.0	-0.0	4.354507923126221	0.7964909076690674	-773.8612670898438	-0.0	-0.0	-0.0	-34.98920822143555	15.953091621398926	75.25775909423828	-0.0	-0.0	-0.0	-0.0	-0.0	-0.0
0.419	-0.0	-0.0	-0.0	3.702601432800293	1.0084245204925537	-773.3531494140625	-0.0	-0.0	-0.0	-34.85613250732422	16.313058853149414	75.69427490234375	-0.0	-0.0	-0.0	-0.0	-0.0	-0.0
0.4195	-0.0	-0.0	-0.0	2.915818452835083	1.4871137142181396	-771.7904052734375	-0.0	-0.0	-0.0	-35.01758575439453	15.885079383850098	75.91749572753906	-0.0	-0.0	-0.0	-0.0	-0.0	-0.0
0.42	-0.0	-0.0	-0.0	1.8124516010284424	2.634796619415283	-771.1467895507812	-0.0	-0.0	-0.0	-34.82082748413086	16.144149780273438	75.3424301147461	-0.0	-0.0	-0.0	-0.0	-0.0	-0.0
0.4205	-0.0	-0.0	-0.0	1.070526123046875	3.5760715007781982	-769.8892211914062	-0.0	-0.0	-0.0	-34.8601188659668	16.064958572387695	76.19857788085938	-0.0	-0.0	-0.0	-0.0	-0.0	-0.0
0.421	-0.0	-0.0	-0.0	0.6744737029075623	4.456520080566406	-768.476806640625	-0.0	-0.0	-0.0	-34.949462890625	15.89566135406494	75.57969665527344	-0.0	-0.0	-0.0	-0.0	-0.0	-0.0
0.4215	-0.0	-0.0	-0.0	-0.1070296913385391	5.169563293457031	-765.2985229492188	-0.0	-0.0	-0.0	-34.88880157470703	16.263296127319336	75.87772369384766	-0.0	-0.0	-0.0	-0.0	-0.0	-0.0
0.422	-0.0	-0.0	-0.0	-0.2283641993999481	6.406722545623779	-767.4599609375	-0.0	-0.0	-0.0	-34.996726989746094	16.22623062133789	75.56836700439453	-0.0	-0.0	-0.0	-0.0	-0.0	-0.0
0.4225	-0.0	-0.0	-0.0	-0.4067475199699402	6.781407356262207	-764.2813720703125	-0.0	-0.0	-0.0	-34.78891372680664	16.13381576538086	75.92841339111328	-0.0	-0.0	-0.0	-0.0	-0.0	-0.0
0.423	-0.0	-0.0	-0.0	-0.8710548877716064	6.071382999420166	-763.4807739257812	-0.0	-0.0	-0.0	-34.728729248046875	16.01459503173828	75.103759765625	-0.0	-0.0	-0.0	-0.0	-0.0	-0.0
0.4235	-0.0	-0.0	-0.0	-1.7946826219558716	5.704345703125	-762.941650390625	-0.0	-0.0	-0.0	-34.86819839477539	16.194534301757812	74.51670837402344	-0.0	-0.0	-0.0	-0.0	-0.0	-0.0
0.424	-0.0	-0.0	-0.0	-2.0622386932373047	4.267871379852295	-761.4970703125	-0.0	-0.0	-0.0	-34.74950408935547	15.905351638793944	77.16935729980469	-0.0	-0.0	-0.0	-0.0	-0.0	-0.0
0.4245	-0.0	-0.0	-0.0	-2.50821590423584	3.2978248596191406	-759.7308959960938	-0.0	-0.0	-0.0	-34.868499755859375	16.185277938842773	75.5306396484375	-0.0	-0.0	-0.0	-0.0	-0.0	-0.0
0.425	-0.0	-0.0	-0.0	-2.616305112838745	2.394652366638184	-758.7118530273438	-0.0	-0.0	-0.0	-34.87870788574219	16.054502487182617	76.54718780517578	-0.0	-0.0	-0.0	-0.0	-0.0	-0.0
0.4255	-0.0	-0.0	-0.0	-2.2901597023010254	0.9014893770217896	-759.5386352539062	-0.0	-0.0	-0.0	-35.15718078613281	16.384178161621094	76.38961029052734	-0.0	-0.0	-0.0	-0.0	-0.0	-0.0
0.426	-0.0	-0.0	-0.0	-2.101506471633911	-0.2076608538627624	-758.863525390625	-0.0	-0.0	-0.0	-34.85899353027344	16.18456268310547	75.92273712158203	-0.0	-0.0	-0.0	-0.0	-0.0	-0.0
0.4265	-0.0	-0.0	-0.0	-2.398625612258911	-0.7036498785018921	-758.08349609375	-0.0	-0.0	-0.0	-34.97826385498047	16.254432678222656	76.19539642333984	-0.0	-0.0	-0.0	-0.0	-0.0	-0.0
0.427	-0.0	-0.0	-0.0	-2.8151280879974365	-1.2873982191085815	-755.1778564453125	-0.0	-0.0	-0.0	-34.67988967895508	15.864823341369627	75.49324035644531	-0.0	-0.0	-0.0	-0.0	-0.0	-0.0
0.4275	-0.0	-0.0	-0.0	-3.1719324588775635	-1.7826080322265625	-755.1771240234375	-0.0	-0.0	-0.0	-34.72937774658203	15.83465576171875	75.88555145263672	-0.0	-0.0	-0.0	-0.0	-0.0	-0.0
0.428	-0.0	-0.0	-0.0	-3.489053249359131	-2.0994818210601807	-754.4703369140625	-0.0	-0.0	-0.0	-34.7896728515625	16.313682556152344	75.37408447265625	-0.0	-0.0	-0.0	-0.0	-0.0	-0.0
0.4285	-0.0	-0.0	-0.0	-3.508580207824707	-2.356515645980835	-754.235107421875	-0.0	-0.0	-0.0	-34.90948867797852	16.064414978027344	75.7245101928711	-0.0	-0.0	-0.0	-0.0	-0.0	-0.0
0.429	-0.0	-0.0	-0.0	-4.341281890869141	-3.465491533279419	-754.3538818359375	-0.0	-0.0	-0.0	-34.77846908569336	16.0049991607666	75.17862701416016	-0.0	-0.0	-0.0	-0.0	-0.0	-0.0
0.4295	-0.0	-0.0	-0.0	-4.698010921478272	-3.751880645751953	-755.6475830078125	-0.0	-0.0	-0.0	-34.669891357421875	16.09504508972168	75.6858901977539	-0.0	-0.0	-0.0	-0.0	-0.0	-0.0
0.43	-0.0	-0.0	-0.0	-5.244227409362793	-4.020455837249756	-755.9190063476562	-0.0	-0.0	-0.0	-34.9382438659668	16.035886764526367	75.11288452148438	-0.0	-0.0	-0.0	-0.0	-0.0	-0.0
0.4305	-0.0	-0.0	-0.0	-5.660106658935547	-4.397686004638672	-757.0977172851562	-0.0	-0.0	-0.0	-34.87945938110352	16.33418846130371	76.7851791381836	-0.0	-0.0	-0.0	-0.0	-0.0	-0.0
0.431	-0.0	-0.0	-0.0	-6.451493740081787	-4.921046733856201	-757.9241943359375	-0.0	-0.0	-0.0	-34.83016586303711	16.095239639282227	75.87841033935547	-0.0	-0.0	-0.0	-0.0	-0.0	-0.0
0.4315	-0.0	-0.0	-0.0	-7.057023048400879	-5.298566818237305	-758.7884521484375	-0.0	-0.0	-0.0	-34.97826385498047	16.045671463012695	76.03539276123047	-0.0	-0.0	-0.0	-0.0	-0.0	-0.0
0.432	-0.0	-0.0	-0.0	-7.404472351074219	-5.9132080078125	-760.7864379882812	-0.0	-0.0	-0.0	-34.92896270751953	16.054981231689453	75.96320343017578	-0.0	-0.0	-0.0	-0.0	-0.0	-0.0
0.4325	-0.0	-0.0	-0.0	-8.256593704223633	-6.694014072418213	-760.7861938476562	-0.0	-0.0	-0.0	-35.03659439086914	15.911559104919434	75.41913604736328	-0.0	-0.0	-0.0	-0.0	-0.0	-0.0
0.433	-0.0	-0.0	-0.0	-8.902665138244629	-7.099644184112549	-760.2015991210938	-0.0	-0.0	-0.0	-34.8173828125	16.172225952148438	75.103759765625	-0.0	-0.0	-0.0	-0.0	-0.0	-0.0
0.4335	-0.0	-0.0	-0.0	-9.85320281982422	-7.981725692749023	-761.2110595703125	-0.0	-0.0	-0.0	-34.7411994934082	16.235021591186523	75.77057647705078	-0.0	-0.0	-0.0	-0.0	-0.0	-0.0
0.434	-0.0	-0.0	-0.0	-10.652220726013184	-7.763379096984863	-760.3963623046875	-0.0	-0.0	-0.0	-34.85333251953125	16.136171340942383	76.1566162109375	-0.0	-0.0	-0.0	-0.0	-0.0	-0.0
0.4345	-0.0	-0.0	-0.0	-11.526118278503418	-7.585057258605957	-760.4320068359375	-0.0	-0.0	-0.0	-34.60281753540039	16.185678482055664	75.2965087890625	-0.0	-0.0	-0.0	-0.0	-0.0	-0.0
0.435	-0.0	-0.0	-0.0	-12.8463134765625	-7.696415424346924	-760.7142944335938	-0.0	-0.0	-0.0	-34.97826385498047	16.03217887878418	74.5601806640625	-0.0	-0.0	-0.0	-0.0	-0.0	-0.0
0.4355	-0.0	-0.0	-0.0	-13.764945030212402	-7.549581527709961	-760.2022705078125	-0.0	-0.0	-0.0	-34.9869270324707	16.194534301757812	75.99813842773438	-0.0	-0.0	-0.0	-0.0	-0.0	-0.0
0.436	-0.0	-0.0	-0.0	-14.81771183013916	-7.023783683776856	-758.983642578125	-0.0	-0.0	-0.0	-34.8165283203125	16.17725372314453	76.38264465332031	-0.0	-0.0	-0.0	-0.0	-0.0	-0.0
0.4365	-0.0	-0.0	-0.0	-15.986113548278809	-6.684780120849609	-758.85888671875	-0.0	-0.0	-0.0	-34.937801361083984	16.194534301757812	75.89737701416016	-0.0	-0.0	-0.0	-0.0	-0.0	-0.0
0.437	-0.0	-0.0	-0.0	-16.627717971801758	-6.279376983642578	-757.4683837890625	-0.0	-0.0	-0.0	-34.773948669433594	16.260801315307617	75.64678955078125	-0.0	-0.0	-0.0	-0.0	-0.0	-0.0
0.4375	-0.0	-0.0	-0.0	-17.007450103759766	-6.377102375030518	-758.4369506835938	-0.0	-0.0	-0.0	-34.98664855957031	16.27606773376465	75.07084655761719	-0.0	-0.0	-0.0	-0.0	-0.0	-0.0
0.438	-0.0	-0.0	-0.0	-17.007394790649414	-5.402869701385498	-758.2097778320312	-0.0	-0.0	-0.0	-34.530967712402344	16.031394958496094	76.25492095947266	-0.0	-0.0	-0.0	-0.0	-0.0	-0.0
0.4385	-0.0	-0.0	-0.0	-17.136871337890625	-5.347824096679688	-758.0840454101562	-0.0	-0.0	-0.0	-34.84821319580078	16.072067260742188	75.4871826171875	-0.0	-0.0	-0.0	-0.0	-0.0	-0.0
0.439	-0.0	-0.0	-0.0	-17.249666213989258	-4.861792087554932	-757.70361328125	-0.0	-0.0	-0.0	-34.913028717041016	16.104564666748047	75.42253875732422	-0.0	-0.0	-0.0	-0.0	-0.0	-0.0
0.4395	-0.0	-0.0	-0.0	-17.598251342773438	-4.999625205993652	-758.7294311523438	-0.0	-0.0	-0.0	-35.05141067504883	15.98190975189209	75.4547119140625	-0.0	-0.0	-0.0	-0.0	-0.0	-0.0
0.44	-0.0	-0.0	-0.0	-17.363826751708984	-4.845235824584961	-759.5266723632812	-0.0	-0.0	-0.0	-34.88880157470703	16.3416748046875	75.35845947265625	-0.0	-0.0	-0.0	-0.0	-0.0	-0.0
0.4405	-0.0	-0.0	-0.0	-17.54213523864746	-4.926688194274902	-758.2449951171875	-0.0	-0.0	-0.0	-34.78334426879883	15.973633766174316	75.8370590209961	-0.0	-0.0	-0.0	-0.0	-0.0	-0.0
0.441	-0.0	-0.0	-0.0	-17.687950134277344	-4.942673683166504	-756.992919921875	-0.0	-0.0	-0.0	-34.97826385498047	16.096561431884766	75.8056640625	-0.0	-0.0	-0.0	-0.0	-0.0	-0.0
0.4415	-0.0	-0.0	-0.0	-17.558351516723633	-4.691702842712402	-756.3189086914062	-0.0	-0.0	-0.0	-34.97826385498047	16.366546630859375	76.44572448730469	-0.0	-0.0	-0.0	-0.0	-0.0	-0.0
0.442	-0.0	-0.0	-0.0	-17.728246688842773	-4.392012596130371	-755.4202880859375	-0.0	-0.0	-0.0	-34.563987731933594	16.30020523071289	75.54658508300781	-0.0	-0.0	-0.0	-0.0	-0.0	-0.0
0.4425	-0.0	-0.0	-0.0	-17.85002326965332	-4.489212989807129	-754.2628173828125	-0.0	-0.0	-0.0	-34.995887756347656	16.194534301757812	75.99633026123047	-0.0	-0.0	-0.0	-0.0	-0.0	-0.0
0.443	-0.0	-0.0	-0.0	-17.39604949951172	-3.9217376708984375	-752.5587768554688	-0.0	-0.0	-0.0	-34.57185745239258	16.01459503173828	75.55487060546875	-0.0	-0.0	-0.0	-0.0	-0.0	-0.0
0.4435	-0.0	-0.0	-0.0	-17.339771270751953	-3.169818639755249	-750.50732421875	-0.0	-0.0	-0.0	-34.63563919067383	16.415634155273438	75.83549499511719	-0.0	-0.0	-0.0	-0.0	-0.0	-0.0
0.444	-0.0	-0.0	-0.0	-18.42582321166992	-2.292074918746948	-747.873779296875	-0.0	-0.0	-0.0	-34.676448822021484	16.292076110839844	75.67449188232422	-0.0	-0.0	-0.0	-0.0	-0.0	-0.0
0.4445	-0.0	-0.0	-0.0	-18.887178421020508	-1.6781666278839111	-746.2388916015625	-0.0	-0.0	-0.0	-35.08268737792969	16.374473571777344	76.39012908935547	-0.0	-0.0	-0.0	-0.0	-0.0	-0.0
0.445	-0.0	-0.0	-0.0	-19.853132247924805	0.048355296254158	-745.048095703125	-0.0	-0.0	-0.0	-34.93723678588867	16.40083122253418	76.66851043701172	-0.0	-0.0	-0.0	-0.0	-0.0	-0.0
0.4455	-0.0	-0.0	-0.0	-20.979494094848636	1.7901129722595217	-743.3843383789062	-0.0	-0.0	-0.0	-34.78468322753906	16.18716049194336	75.67333984375	-0.0	-0.0	-0.0	-0.0	-0.0	-0.0
0.446	-0.0	-0.0	-0.0	-21.51467514038086	2.5031158924102783	-741.2951049804688	-0.0	-0.0	-0.0	-34.82851791381836	15.917291641235352	76.42174530029297	-0.0	-0.0	-0.0	-0.0	-0.0	-0.0
0.4465	-0.0	-0.0	-0.0	-21.9605770111084	3.57260537147522	-739.072998046875	-0.0	-0.0	-0.0	-34.799346923828125	16.097307205200195	74.99906158447266	-0.0	-0.0	-0.0	-0.0	-0.0	-0.0
0.447	-0.0	-0.0	-0.0	-22.48104858398437	4.8203558921813965	-736.6464233398438	-0.0	-0.0	-0.0	-34.66872787475586	16.27732276916504	75.15316772460938	-0.0	-0.0	-0.0	-0.0	-0.0	-0.0
0.4475	-0.0	-0.0	-0.0	-23.10552215576172	5.34055233001709	-735.5404052734375	-0.0	-0.0	-0.0	-34.88880157470703	16.34019660949707	74.59125518798828	-0.0	-0.0	-0.0	-0.0	-0.0	-0.0
0.448	-0.0	-0.0	-0.0	-23.194732666015625	6.472748756408691	-733.9934692382812	-0.0	-0.0	-0.0	-34.98528289794922	16.194534301757812	75.61640930175781	-0.0	-0.0	-0.0	-0.0	-0.0	-0.0
0.4485	-0.0	-0.0	-0.0	-23.09299087524414	7.007418155670166	-733.5829467773438	-0.0	-0.0	-0.0	-34.84754943847656	15.980091094970703	75.61656188964844	-0.0	-0.0	-0.0	-0.0	-0.0	-0.0
